Coordinates
version=1
nRows=10
nColumns=63
inDegrees=yes

Units are S.I. units (second, meters, Newtons, ...)
If the header above contains a line with 'inDegrees', this indicates whether rotational values are in degrees (yes) or radians (no).

endheader
time	pelvis_tilt	pelvis_list	pelvis_rotation	pelvis_tx	pelvis_ty	pelvis_tz	hip_flexion_r	hip_adduction_r	hip_rotation_r	knee_angle_r	knee_angle_r_beta	ankle_angle_r	subtalar_angle_r	mtp_angle_r	hip_flexion_l	hip_adduction_l	hip_rotation_l	knee_angle_l	knee_angle_l_beta	ankle_angle_l	subtalar_angle_l	mtp_angle_l	L5_S1_Flex_Ext	L5_S1_Lat_Bending	L5_S1_axial_rotation	L4_L5_Flex_Ext	L4_L5_Lat_Bending	L4_L5_axial_rotation	L3_L4_Flex_Ext	L3_L4_Lat_Bending	L3_L4_axial_rotation	L2_L3_Flex_Ext	L2_L3_Lat_Bending	L2_L3_axial_rotation	L1_L2_Flex_Ext	L1_L2_Lat_Bending	L1_L2_axial_rotation	L1_T12_Flex_Ext	L1_T12_Lat_Bending	L1_T12_axial_rotation	Abs_r3	Abs_r2	Abs_r1	Abs_t1	Abs_t2	neck_flexion	neck_bending	neck_rotation	arm_flex_r	arm_add_r	arm_rot_r	elbow_flex_r	pro_sup_r	wrist_flex_r	wrist_dev_r	arm_flex_l	arm_add_l	arm_rot_l	elbow_flex_l	pro_sup_l	wrist_flex_l	wrist_dev_l
     24.76666667	     -1.41353811	      0.12813754	     -6.25648452	      2.00831359	      0.85148894	      0.35275505	     -5.80582115	     -1.06192559	     -0.42799103	     36.96762302	      0.64520674	     -1.82745313	    -16.61677312	      0.00000000	     18.04040312	      0.51169980	      2.95675648	     12.80213259	      0.22343936	     -2.67577376	    -17.29578455	      0.00000000	      0.00827895	      0.06697718	      2.04336861	      0.01537483	      0.08907965	      2.17107915	      0.01360148	      0.16284831	      2.17107915	      0.00946201	      0.16284831	      1.78794753	      0.00768783	      0.13657986	      1.66023699	      0.00473059	      0.10374765	      1.53252646	      0.05913568	      0.75765924	     11.36460319	      0.00000000	      0.00000000	      0.00000000	      0.00000000	      0.00000000	     -4.74342130	    -13.31600480	     28.09621912	     32.68359790	     34.01210433	      0.00000000	      5.00000014	     -9.50548197	     -5.10427508	      0.10952837	     27.84452760	     49.79087719	      0.00000000	      5.00000014
     24.80000000	     -0.91802691	     -0.02827710	     -4.84324377	      2.04170679	      0.85430439	      0.34807876	     -1.42939365	     -1.54322730	     -1.63549601	     45.96072534	      0.80216598	    -11.11269298	    -18.63247656	      0.00000000	     15.58359713	      1.45863501	      3.83573968	     13.81298864	      0.24108213	     -0.53890846	    -17.42590996	      0.00000000	      0.00970213	      0.08781997	      1.30128748	      0.01801782	      0.11680056	      1.38261794	      0.01593962	      0.21352548	      1.38261794	      0.01108856	      0.21352548	      1.13862654	      0.00900939	      0.17908248	      1.05729607	      0.00554379	      0.13603313	      0.97596561	      0.06930132	      0.99343707	      7.23737055	      0.00000000	      0.00000000	      0.00000000	      0.00000000	      0.00000000	     -4.33471361	    -12.37654919	     28.08482647	     30.48491826	     34.04981388	      0.00000000	      5.00000014	     -9.76324069	     -4.76012041	      0.14569620	     28.14308518	     49.65688370	      0.00000000	      5.00000014
     24.83333333	     -0.49889276	     -0.44583078	     -3.52754067	      2.07383720	      0.85683210	      0.34329855	      3.66568153	     -1.28274850	     -1.52905222	     53.86791583	      0.94017249	    -18.91830200	    -19.33750010	      0.00000000	     12.60367937	      1.96622877	      4.68676281	     13.67946331	      0.23875167	      1.25017792	    -17.27276306	      0.00000000	      0.00792031	      0.13301360	      0.52982612	      0.01470880	      0.17690809	      0.56294025	      0.01301227	      0.32340928	      0.56294025	      0.00905212	      0.32340928	      0.46359785	      0.00735480	      0.27124134	      0.43048372	      0.00452566	      0.20603807	      0.39736959	      0.05657397	      1.50467649	      2.94673392	      0.00000000	      0.00000000	      0.00000000	      0.00000000	      0.00000000	     -3.81180291	    -11.45388815	     27.92953233	     28.37034319	     34.07658330	      0.00000000	      5.00000014	     -9.74816807	     -4.19828891	     -0.00868592	     28.66409430	     49.48772469	      0.00000000	      5.00000014
     24.86666667	     -0.25181407	     -0.78206674	     -1.73247768	      2.10411954	      0.85886821	      0.33875347	      9.28987464	     -0.66985453	     -1.41981960	     60.22131319	      1.05106020	    -23.31359999	    -19.53948704	      0.00000000	      9.56848957	      2.33237438	      5.49846167	     12.78941653	      0.22321743	      2.51585273	    -16.48529837	      0.00000000	      0.00749344	      0.16256062	     -0.34806844	      0.01391606	      0.21620563	     -0.36982272	      0.01231096	      0.39524989	     -0.36982272	      0.00856425	      0.39524989	     -0.30455989	      0.00695840	      0.33149362	     -0.28280561	      0.00428175	      0.25180640	     -0.26105133	      0.05352486	      1.83891826	     -1.93585227	      0.00000000	      0.00000000	      0.00000000	      0.00000000	      0.00000000	     -3.28717221	     -9.71788087	     24.79486035	     25.28672738	     34.20307419	      0.00000000	      5.00000014	     -9.86519766	     -3.33106524	     -3.66981605	     30.21119552	     47.60074552	      0.00000000	      5.00000014
     24.90000000	     -0.23000866	     -1.20604129	     -0.08723242	      2.13234548	      0.86065323	      0.33515202	     15.28162592	      0.13611729	     -1.29093504	     64.47803196	      1.12535395	    -24.11536405	    -19.59168159	      0.00000000	      6.56078517	      2.18763741	      5.80336208	     11.17284754	      0.19500298	      3.40023609	    -14.58790744	      0.00000000	      0.00686113	      0.20820023	     -1.10148078	      0.01274180	      0.27690631	     -1.17032333	      0.01127214	      0.50621804	     -1.17032333	      0.00784158	      0.50621804	     -0.96379568	      0.00637124	      0.42456191	     -0.89495313	      0.00392045	      0.32250216	     -0.82611058	      0.04900833	      2.35520266	     -6.12610565	      0.00000000	      0.00000000	      0.00000000	      0.00000000	      0.00000000	     -3.22816931	     -8.40584918	     21.99634707	     23.43384863	     33.84757374	      0.00000000	      5.00000014	     -9.38988419	     -3.51988505	     -3.62639773	     31.70921402	     47.18723495	      0.00000000	      5.00000014
     24.93333333	     -0.48310633	     -1.73976588	      1.79015442	      2.15878194	      0.86209774	      0.33190619	     20.97582613	      0.48450818	     -2.09974742	     65.73703379	      1.14732768	    -21.33766301	    -19.58632371	      0.00000000	      4.05356931	      1.53497912	      5.06656479	      9.58672502	      0.16731992	      4.76909480	    -10.08366442	      0.00000000	      0.00695416	      0.28718268	     -1.76825339	      0.01291458	      0.38195297	     -1.87876923	      0.01142500	      0.69825597	     -1.87876923	      0.00794791	      0.69825597	     -1.54722172	      0.00645764	      0.58562292	     -1.43670588	      0.00397361	      0.44484597	     -1.32619004	      0.04967290	      3.24866792	     -9.83449489	      0.00000000	      0.00000000	      0.00000000	      0.00000000	      0.00000000	     -5.62470172	     -4.89443853	     -2.54043849	     26.14337978	     45.39931737	      0.00000000	      5.00000014	     -8.17673062	     -4.45084219	      0.10713978	     32.89595460	     30.43392442	      0.00000000	      5.00000014
     24.96666667	     -0.87442487	     -2.33295718	      3.86607600	      2.18335565	      0.86338049	      0.32860792	     25.47623062	      0.05051894	     -3.87950212	     63.21817906	      1.10336537	    -15.64417772	    -19.53908023	      0.00000000	      2.00161660	      0.65246158	      4.51393651	      8.16600127	      0.14252361	      5.86507518	     -5.38231885	      0.00000000	      0.00811469	      0.37697921	     -2.45074252	      0.01506979	      0.50138235	     -2.60391393	      0.01333163	      0.91658725	     -2.60391393	      0.00927428	      0.91658725	     -2.14439970	      0.00753530	      0.76873600	     -1.99122830	      0.00463673	      0.58394079	     -1.83805689	      0.05796243	      4.26446420	    -13.63029467	      0.00000000	      0.00000000	      0.00000000	      0.00000000	      0.00000000	     -6.50029958	     -4.70253441	     -5.41866359	     27.53792039	     44.49925864	      0.00000000	      5.00000014	     -6.66510449	     -5.30612024	      0.38488367	     34.04843360	     30.67024488	      0.00000000	      5.00000014
     25.00000000	     -1.34289483	     -2.93993558	      5.95625354	      2.20650187	      0.86404494	      0.32504543	     28.25152578	     -1.13087892	     -6.71767493	     56.67869674	      0.98922987	     -9.51789117	    -19.48699045	      0.00000000	      0.47214201	     -0.18286589	      5.60182196	      7.28400427	      0.12712986	      6.69442775	     -3.23975158	      0.00000000	      0.01022631	      0.47717825	     -3.09168136	      0.01899129	      0.63464707	     -3.28491144	      0.01680081	      1.16021120	     -3.28491144	      0.01168765	      1.16021120	     -2.70522119	      0.00949616	      0.97306189	     -2.51199110	      0.00584332	      0.73914911	     -2.31876102	      0.07304554	      5.39793581	    -17.19500420	      0.00000000	      0.00000000	      0.00000000	      0.00000000	      0.00000000	     -7.19262219	     -5.72035625	     -4.32021208	     28.95008215	     44.55610133	      0.00000000	      5.00000014	     -4.73055420	     -6.08898221	      0.24286729	     34.90824841	     30.85157600	      0.00000000	      5.00000014
     25.03333333	     -1.84189184	     -3.40457896	      7.73050686	      2.22920654	      0.86372395	      0.32192430	     29.17456447	     -2.64179791	    -10.76265689	     46.61230189	      0.81353814	     -5.48510408	    -19.42517468	      0.00000000	     -0.81693171	     -0.92165957	      6.22290483	      6.65501979	      0.11615201	      7.96940360	     -1.05250833	      0.00000000	      0.01264186	      0.56167588	     -3.59387947	      0.02347720	      0.74702891	     -3.81849694	      0.02076932	      1.36565872	     -3.81849694	      0.01444839	      1.36565872	     -3.14464454	      0.01173923	      1.14536944	     -2.92002707	      0.00722356	      0.87003593	     -2.69540961	      0.09029956	      6.35378984	    -19.98807947	      0.00000000	      0.00000000	      0.00000000	      0.00000000	      0.00000000	     -7.61370872	     -7.86317158	      1.33149797	     30.13877802	     44.80998784	      0.00000000	      5.00000014	     -2.64421400	     -6.70389384	      0.06768777	     35.85609272	     31.34061267	      0.00000000	      5.00000014
     25.06666667	     -2.32810583	     -3.40821239	      9.44318286	      2.25252140	      0.86176547	      0.31987702	     28.55570240	     -3.98209208	    -15.76119667	     34.32046077	      0.59900504	     -4.69295194	    -19.22165240	      0.00000000	     -1.99158990	     -1.20132814	      7.74783497	      6.37031398	      0.11118295	      9.63528494	     -0.36319604	      0.00000000	      0.01493687	      0.58648584	     -3.92906712	      0.02773926	      0.78002617	     -4.17463381	      0.02453978	      1.42598167	     -4.17463381	      0.01707135	      1.42598167	     -3.43793373	      0.01387038	      1.19596192	     -3.19236703	      0.00853493	      0.90846656	     -2.94680034	      0.10669257	      6.63444511	    -21.85229260	      0.00000000	      0.00000000	      0.00000000	      0.00000000	      0.00000000	     -8.38077520	     -8.89311203	      2.06802476	     31.71309377	     44.62680521	      0.00000000	      5.00000014	     -0.57406093	     -7.25181482	      0.62017850	     37.08223995	     31.69943743	      0.00000000	      5.00000014
